<svg xmlns="http://www.w3.org/2000/svg" version="1.1" viewBox="0 0 1024 1024" width="1280" height="1280">
    <path transform="translate(861,4)"
        d="m0 0h10l15 3 8 4v3l-14 12-11 9-13 11-11 9-15 13-14 12-11 10-8 7-12 11-10 9-16 15-40 40-7 8-12 13-9 11-12 14-13 17-14 19-10 15-12 19-12 21-14 27-13 29-11 29-9 27-10 36-9 42-7 43-5 42-3 36-2 38-1 34v86l-17 16-10 9-17 17-7 8-7 7-7 8-9 10-9 11-9 10-9 11-11 13-8 10-18 22-14 17-13 15-11 12-15 15-14 9-3 1h-7l-7-4-6-7-10-19-13-34-1-4h-10l-16 8-14 11-10 9-8 7-16 15-11 11-8 7-11 10-10 7-10 4-11 2h-15l-14-3-14-7-8-8-6-12-2-9v-27l3-35 5-33 6-28 8-29 11-33 11-27 12-26 11-22 14-24 12-20 16-24 12-17 26-36 3-5 4-37 5-29 8-34 9-29 9-26 12-29 14-30 12-23 14-24 15-24 14-20 16-21 13-16 12-14 14-15 25-25 8-7 13-11 17-13 17-12 25-15 21-11 27-11 26-8 25-5 19-2h13l16 4 18 5h13l6-4 23-23 8-7 13-12 11-9 16-13 20-14 20-12 19-9 15-5 9-2z"
        fill="#0EC8E0" />
    <path transform="translate(909,50)"
        d="m0 0h8l9 4 8 9 5 13 3 17v26l-3 23-5 20-11 25-24 48-13 28-12 27-12 30-11 30-12 38-10 12-27 36-13 18-32 48-13 21-15 26-13 24-13 26-13 30-10 28-7 23-6 27-2 8h-13l-16 5-19 9-24 15-18 12-3-1-4-35-2-28v-64l3-38 5-37 7-36 9-36 11-35 10-28 12-29 13-28 12-24 13-23 10-17 12-19 12-18 12-17 14-19 13-16 8-10 11-13 9-10 7-8 12-13 37-37 8-7 10-9 11-9 16-13 18-13 14-9z"
        fill="#890DE0" />
    <path transform="translate(816,476)"
        d="m0 0h2l-2 16-5 38-3 33-2 41v63l-5 18-9 20-11 19-12 17-13 16-12 14-24 24-3-1-12-24-14-24-1-1 1-9 13-37 15-39 13-31 13-29 16-33 13-25 14-24 11-18 10-15z"
        fill="#890DE0" />
</svg>